<svg width="158" height="66" viewBox="0 0 158 66" fill="none" xmlns="http://www.w3.org/2000/svg">
<path d="M134 15H24C14.0589 15 6 23.0589 6 33C6 42.9411 14.0589 51 24 51H134C143.941 51 152 42.9411 152 33C152 23.0589 143.941 15 134 15Z" fill="#58707F"/>
<path d="M51.7761 27.624V36H50.0961V32.436H46.5081V36H44.8281V27.624H46.5081V31.068H50.0961V27.624H51.7761ZM56.3817 36.108C55.7417 36.108 55.1657 35.968 54.6537 35.688C54.1417 35.4 53.7377 34.996 53.4417 34.476C53.1537 33.956 53.0097 33.356 53.0097 32.676C53.0097 31.996 53.1577 31.396 53.4537 30.876C53.7577 30.356 54.1697 29.956 54.6897 29.676C55.2097 29.388 55.7897 29.244 56.4297 29.244C57.0697 29.244 57.6497 29.388 58.1697 29.676C58.6897 29.956 59.0977 30.356 59.3937 30.876C59.6977 31.396 59.8497 31.996 59.8497 32.676C59.8497 33.356 59.6937 33.956 59.3817 34.476C59.0777 34.996 58.6617 35.4 58.1337 35.688C57.6137 35.968 57.0297 36.108 56.3817 36.108ZM56.3817 34.644C56.6857 34.644 56.9697 34.572 57.2337 34.428C57.5057 34.276 57.7217 34.052 57.8817 33.756C58.0417 33.46 58.1217 33.1 58.1217 32.676C58.1217 32.044 57.9537 31.56 57.6177 31.224C57.2897 30.88 56.8857 30.708 56.4057 30.708C55.9257 30.708 55.5217 30.88 55.1937 31.224C54.8737 31.56 54.7137 32.044 54.7137 32.676C54.7137 33.308 54.8697 33.796 55.1817 34.14C55.5017 34.476 55.9017 34.644 56.3817 34.644ZM70.298 29.352L68.354 36H66.542L65.33 31.356L64.118 36H62.294L60.338 29.352H62.042L63.218 34.416L64.49 29.352H66.266L67.514 34.404L68.69 29.352H70.298ZM82.3224 29.256C83.1384 29.256 83.7944 29.508 84.2904 30.012C84.7944 30.508 85.0464 31.204 85.0464 32.1V36H83.3664V32.328C83.3664 31.808 83.2344 31.412 82.9704 31.14C82.7064 30.86 82.3464 30.72 81.8904 30.72C81.4344 30.72 81.0704 30.86 80.7984 31.14C80.5344 31.412 80.4024 31.808 80.4024 32.328V36H78.7224V32.328C78.7224 31.808 78.5904 31.412 78.3264 31.14C78.0624 30.86 77.7024 30.72 77.2464 30.72C76.7824 30.72 76.4144 30.86 76.1424 31.14C75.8784 31.412 75.7464 31.808 75.7464 32.328V36H74.0664V29.352H75.7464V30.156C75.9624 29.876 76.2384 29.656 76.5744 29.496C76.9184 29.336 77.2944 29.256 77.7024 29.256C78.2224 29.256 78.6864 29.368 79.0944 29.592C79.5024 29.808 79.8184 30.12 80.0424 30.528C80.2584 30.144 80.5704 29.836 80.9784 29.604C81.3944 29.372 81.8424 29.256 82.3224 29.256ZM86.2086 32.652C86.2086 31.98 86.3406 31.384 86.6046 30.864C86.8766 30.344 87.2406 29.944 87.6966 29.664C88.1606 29.384 88.6766 29.244 89.2446 29.244C89.7406 29.244 90.1726 29.344 90.5406 29.544C90.9166 29.744 91.2166 29.996 91.4406 30.3V29.352H93.1326V36H91.4406V35.028C91.2246 35.34 90.9246 35.6 90.5406 35.808C90.1646 36.008 89.7286 36.108 89.2326 36.108C88.6726 36.108 88.1606 35.964 87.6966 35.676C87.2406 35.388 86.8766 34.984 86.6046 34.464C86.3406 33.936 86.2086 33.332 86.2086 32.652ZM91.4406 32.676C91.4406 32.268 91.3606 31.92 91.2006 31.632C91.0406 31.336 90.8246 31.112 90.5526 30.96C90.2806 30.8 89.9886 30.72 89.6766 30.72C89.3646 30.72 89.0766 30.796 88.8126 30.948C88.5486 31.1 88.3326 31.324 88.1646 31.62C88.0046 31.908 87.9246 32.252 87.9246 32.652C87.9246 33.052 88.0046 33.404 88.1646 33.708C88.3326 34.004 88.5486 34.232 88.8126 34.392C89.0846 34.552 89.3726 34.632 89.6766 34.632C89.9886 34.632 90.2806 34.556 90.5526 34.404C90.8246 34.244 91.0406 34.02 91.2006 33.732C91.3606 33.436 91.4406 33.084 91.4406 32.676ZM101.133 29.352L97.0174 39.144H95.2294L96.6694 35.832L94.0054 29.352H95.8894L97.6054 33.996L99.3451 29.352H101.133ZM106.578 27.624V36H104.898V27.624H106.578ZM114.842 29.256C115.346 29.256 115.794 29.368 116.186 29.592C116.578 29.808 116.882 30.132 117.098 30.564C117.322 30.988 117.434 31.5 117.434 32.1V36H115.754V32.328C115.754 31.8 115.622 31.396 115.358 31.116C115.094 30.828 114.734 30.684 114.278 30.684C113.814 30.684 113.446 30.828 113.174 31.116C112.91 31.396 112.778 31.8 112.778 32.328V36H111.098V27.12H112.778V30.18C112.994 29.892 113.282 29.668 113.642 29.508C114.002 29.34 114.402 29.256 114.842 29.256ZM125.211 32.532C125.211 32.772 125.195 32.988 125.163 33.18H120.303C120.343 33.66 120.511 34.036 120.807 34.308C121.103 34.58 121.467 34.716 121.899 34.716C122.523 34.716 122.967 34.448 123.231 33.912H125.043C124.851 34.552 124.483 35.08 123.939 35.496C123.395 35.904 122.727 36.108 121.935 36.108C121.295 36.108 120.719 35.968 120.207 35.688C119.703 35.4 119.307 34.996 119.019 34.476C118.739 33.956 118.599 33.356 118.599 32.676C118.599 31.988 118.739 31.384 119.019 30.864C119.299 30.344 119.691 29.944 120.195 29.664C120.699 29.384 121.279 29.244 121.935 29.244C122.567 29.244 123.131 29.38 123.627 29.652C124.131 29.924 124.519 30.312 124.791 30.816C125.071 31.312 125.211 31.884 125.211 32.532ZM123.471 32.052C123.463 31.62 123.307 31.276 123.003 31.02C122.699 30.756 122.327 30.624 121.887 30.624C121.471 30.624 121.119 30.752 120.831 31.008C120.551 31.256 120.379 31.604 120.315 32.052H123.471ZM128.117 27.12V36H126.437V27.12H128.117ZM131.457 30.312C131.673 30.008 131.969 29.756 132.345 29.556C132.729 29.348 133.165 29.244 133.653 29.244C134.221 29.244 134.733 29.384 135.189 29.664C135.653 29.944 136.017 30.344 136.281 30.864C136.553 31.376 136.689 31.972 136.689 32.652C136.689 33.332 136.553 33.936 136.281 34.464C136.017 34.984 135.653 35.388 135.189 35.676C134.733 35.964 134.221 36.108 133.653 36.108C133.165 36.108 132.733 36.008 132.357 35.808C131.989 35.608 131.689 35.356 131.457 35.052V39.168H129.777V29.352H131.457V30.312ZM134.973 32.652C134.973 32.252 134.889 31.908 134.721 31.62C134.561 31.324 134.345 31.1 134.073 30.948C133.809 30.796 133.521 30.72 133.209 30.72C132.905 30.72 132.617 30.8 132.345 30.96C132.081 31.112 131.865 31.336 131.697 31.632C131.537 31.928 131.457 32.276 131.457 32.676C131.457 33.076 131.537 33.424 131.697 33.72C131.865 34.016 132.081 34.244 132.345 34.404C132.617 34.556 132.905 34.632 133.209 34.632C133.521 34.632 133.809 34.552 134.073 34.392C134.345 34.232 134.561 34.004 134.721 33.708C134.889 33.412 134.973 33.06 134.973 32.652ZM140.25 27.336C141.082 27.336 141.75 27.564 142.254 28.02C142.766 28.468 143.022 29.088 143.022 29.88C143.022 30.664 142.77 31.264 142.266 31.68C141.762 32.088 141.094 32.292 140.262 32.292L140.214 33.216H138.738L138.678 31.176H139.218C139.914 31.176 140.45 31.084 140.826 30.9C141.202 30.716 141.39 30.38 141.39 29.892C141.39 29.54 141.286 29.26 141.078 29.052C140.878 28.844 140.602 28.74 140.25 28.74C139.882 28.74 139.594 28.84 139.386 29.04C139.186 29.24 139.086 29.516 139.086 29.868H137.502C137.494 29.38 137.598 28.944 137.814 28.56C138.03 28.176 138.346 27.876 138.762 27.66C139.186 27.444 139.682 27.336 140.25 27.336ZM139.47 36.084C139.166 36.084 138.914 35.992 138.714 35.808C138.522 35.616 138.426 35.38 138.426 35.1C138.426 34.82 138.522 34.588 138.714 34.404C138.914 34.212 139.166 34.116 139.47 34.116C139.766 34.116 140.01 34.212 140.202 34.404C140.394 34.588 140.49 34.82 140.49 35.1C140.49 35.38 140.394 35.616 140.202 35.808C140.01 35.992 139.766 36.084 139.47 36.084Z" fill="white"/>
<path d="M27 44C33.0751 44 38 39.0751 38 33C38 26.9249 33.0751 22 27 22C20.9249 22 16 26.9249 16 33C16 39.0751 20.9249 44 27 44Z" fill="white"/>
<path d="M27 27C30.2812 27 32.8125 29.4141 32.8125 32.6484C32.8125 36.75 28.8984 39.0469 25.3125 38.0625C25.1016 38.0156 25.0781 38.0625 23.8594 38.6016C23.7891 38.625 23.7188 38.625 23.6719 38.625C23.4141 38.625 23.2031 38.4375 23.2031 38.1797C23.1562 37.1016 23.2031 37.0078 23.0156 36.8203C21.8672 35.8125 21.1875 34.3359 21.1875 32.6484C21.1875 29.4141 23.7188 27 27 27ZM30.4922 31.3594C30.6562 31.1016 30.3516 30.7969 30.0938 30.9844L28.2656 32.3672C28.1953 32.4141 28.125 32.4375 28.0547 32.4375C27.9609 32.4375 27.8906 32.4141 27.8438 32.3672L26.4844 31.3594C26.3438 31.2422 26.1562 31.1719 25.9453 31.1719C25.6406 31.1719 25.3594 31.3359 25.2188 31.5937L23.5078 34.2891C23.3438 34.5469 23.6484 34.8516 23.9062 34.6641L25.7344 33.2813C25.8047 33.2344 25.875 33.2109 25.9453 33.2109C26.0391 33.2109 26.1094 33.2344 26.1562 33.2813L27.5156 34.2891C27.6797 34.4063 27.8438 34.4766 28.0547 34.4766C28.3594 34.4766 28.6406 34.3125 28.7812 34.0547L30.4922 31.3594Z" fill="#58707F"/>
</svg>
