<svg width="100" height="80" viewBox="0 0 100 80" fill="none" xmlns="http://www.w3.org/2000/svg">
<rect x="9.5" y="30.5" width="81" height="19" rx="9.5" fill="white" stroke="#58707F"/>
<path d="M32.536 38.114V43H31.556V40.921H29.463V43H28.483V38.114H29.463V40.123H31.556V38.114H32.536ZM35.2226 43.063C34.8492 43.063 34.5132 42.9813 34.2146 42.818C33.9159 42.65 33.6802 42.4143 33.5076 42.111C33.3396 41.8077 33.2556 41.4577 33.2556 41.061C33.2556 40.6643 33.3419 40.3143 33.5146 40.011C33.6919 39.7077 33.9322 39.4743 34.2356 39.311C34.5389 39.143 34.8772 39.059 35.2506 39.059C35.6239 39.059 35.9622 39.143 36.2656 39.311C36.5689 39.4743 36.8069 39.7077 36.9796 40.011C37.1569 40.3143 37.2456 40.6643 37.2456 41.061C37.2456 41.4577 37.1546 41.8077 36.9726 42.111C36.7952 42.4143 36.5526 42.65 36.2446 42.818C35.9412 42.9813 35.6006 43.063 35.2226 43.063ZM35.2226 42.209C35.3999 42.209 35.5656 42.167 35.7196 42.083C35.8782 41.9943 36.0042 41.8637 36.0976 41.691C36.1909 41.5183 36.2376 41.3083 36.2376 41.061C36.2376 40.6923 36.1396 40.41 35.9436 40.214C35.7522 40.0133 35.5166 39.913 35.2366 39.913C34.9566 39.913 34.7209 40.0133 34.5296 40.214C34.3429 40.41 34.2496 40.6923 34.2496 41.061C34.2496 41.4297 34.3406 41.7143 34.5226 41.915C34.7092 42.111 34.9426 42.209 35.2226 42.209ZM43.3404 39.122L42.2064 43H41.1494L40.4424 40.291L39.7354 43H38.6714L37.5304 39.122H38.5244L39.2104 42.076L39.9524 39.122H40.9884L41.7164 42.069L42.4024 39.122H43.3404ZM50.3547 39.066C50.8307 39.066 51.2133 39.213 51.5027 39.507C51.7967 39.7963 51.9437 40.2023 51.9437 40.725V43H50.9637V40.858C50.9637 40.5547 50.8867 40.3237 50.7327 40.165C50.5787 40.0017 50.3687 39.92 50.1027 39.92C49.8367 39.92 49.6243 40.0017 49.4657 40.165C49.3117 40.3237 49.2347 40.5547 49.2347 40.858V43H48.2547V40.858C48.2547 40.5547 48.1777 40.3237 48.0237 40.165C47.8697 40.0017 47.6597 39.92 47.3937 39.92C47.123 39.92 46.9083 40.0017 46.7497 40.165C46.5957 40.3237 46.5187 40.5547 46.5187 40.858V43H45.5387V39.122H46.5187V39.591C46.6447 39.4277 46.8057 39.2993 47.0017 39.206C47.2023 39.1127 47.4217 39.066 47.6597 39.066C47.963 39.066 48.2337 39.1313 48.4717 39.262C48.7097 39.388 48.894 39.57 49.0247 39.808C49.1507 39.584 49.3327 39.4043 49.5707 39.269C49.8133 39.1337 50.0747 39.066 50.3547 39.066ZM52.6216 41.047C52.6216 40.655 52.6986 40.3073 52.8526 40.004C53.0113 39.7007 53.2236 39.4673 53.4896 39.304C53.7603 39.1407 54.0613 39.059 54.3926 39.059C54.682 39.059 54.934 39.1173 55.1486 39.234C55.368 39.3507 55.543 39.4977 55.6736 39.675V39.122H56.6606V43H55.6736V42.433C55.5476 42.615 55.3726 42.7667 55.1486 42.888C54.9293 43.0047 54.675 43.063 54.3856 43.063C54.059 43.063 53.7603 42.979 53.4896 42.811C53.2236 42.643 53.0113 42.4073 52.8526 42.104C52.6986 41.796 52.6216 41.4437 52.6216 41.047ZM55.6736 41.061C55.6736 40.823 55.627 40.62 55.5336 40.452C55.4403 40.2793 55.3143 40.1487 55.1556 40.06C54.997 39.9667 54.8266 39.92 54.6446 39.92C54.4626 39.92 54.2946 39.9643 54.1406 40.053C53.9866 40.1417 53.8606 40.2723 53.7626 40.445C53.6693 40.613 53.6226 40.8137 53.6226 41.047C53.6226 41.2803 53.6693 41.4857 53.7626 41.663C53.8606 41.8357 53.9866 41.9687 54.1406 42.062C54.2993 42.1553 54.4673 42.202 54.6446 42.202C54.8266 42.202 54.997 42.1577 55.1556 42.069C55.3143 41.9757 55.4403 41.845 55.5336 41.677C55.627 41.5043 55.6736 41.299 55.6736 41.061ZM61.3278 39.122L58.9268 44.834H57.8838L58.7238 42.902L57.1698 39.122H58.2688L59.2698 41.831L60.2848 39.122H61.3278ZM64.504 38.114V43H63.524V38.114H64.504ZM69.3242 39.066C69.6182 39.066 69.8796 39.1313 70.1082 39.262C70.3369 39.388 70.5142 39.577 70.6402 39.829C70.7709 40.0763 70.8362 40.375 70.8362 40.725V43H69.8562V40.858C69.8562 40.55 69.7792 40.3143 69.6252 40.151C69.4712 39.983 69.2612 39.899 68.9952 39.899C68.7246 39.899 68.5099 39.983 68.3512 40.151C68.1972 40.3143 68.1202 40.55 68.1202 40.858V43H67.1402V37.82H68.1202V39.605C68.2462 39.437 68.4142 39.3063 68.6242 39.213C68.8342 39.115 69.0676 39.066 69.3242 39.066ZM75.3732 40.977C75.3732 41.117 75.3638 41.243 75.3452 41.355H72.5102C72.5335 41.635 72.6315 41.8543 72.8042 42.013C72.9768 42.1717 73.1892 42.251 73.4412 42.251C73.8052 42.251 74.0642 42.0947 74.2182 41.782H75.2752C75.1632 42.1553 74.9485 42.4633 74.6312 42.706C74.3138 42.944 73.9242 43.063 73.4622 43.063C73.0888 43.063 72.7528 42.9813 72.4542 42.818C72.1602 42.65 71.9292 42.4143 71.7612 42.111C71.5978 41.8077 71.5162 41.4577 71.5162 41.061C71.5162 40.6597 71.5978 40.3073 71.7612 40.004C71.9245 39.7007 72.1532 39.4673 72.4472 39.304C72.7412 39.1407 73.0795 39.059 73.4622 39.059C73.8308 39.059 74.1598 39.1383 74.4492 39.297C74.7432 39.4557 74.9695 39.682 75.1282 39.976C75.2915 40.2653 75.3732 40.599 75.3732 40.977ZM74.3582 40.697C74.3535 40.445 74.2625 40.2443 74.0852 40.095C73.9078 39.941 73.6908 39.864 73.4342 39.864C73.1915 39.864 72.9862 39.9387 72.8182 40.088C72.6548 40.2327 72.5545 40.4357 72.5172 40.697H74.3582ZM77.0685 37.82V43H76.0885V37.82H77.0685ZM79.0167 39.682C79.1427 39.5047 79.3154 39.3577 79.5347 39.241C79.7587 39.1197 80.013 39.059 80.2977 39.059C80.629 39.059 80.9277 39.1407 81.1937 39.304C81.4644 39.4673 81.6767 39.7007 81.8307 40.004C81.9894 40.3027 82.0687 40.6503 82.0687 41.047C82.0687 41.4437 81.9894 41.796 81.8307 42.104C81.6767 42.4073 81.4644 42.643 81.1937 42.811C80.9277 42.979 80.629 43.063 80.2977 43.063C80.013 43.063 79.761 43.0047 79.5417 42.888C79.327 42.7713 79.152 42.6243 79.0167 42.447V44.848H78.0367V39.122H79.0167V39.682ZM81.0677 41.047C81.0677 40.8137 81.0187 40.613 80.9207 40.445C80.8274 40.2723 80.7014 40.1417 80.5427 40.053C80.3887 39.9643 80.2207 39.92 80.0387 39.92C79.8614 39.92 79.6934 39.9667 79.5347 40.06C79.3807 40.1487 79.2547 40.2793 79.1567 40.452C79.0634 40.6247 79.0167 40.8277 79.0167 41.061C79.0167 41.2943 79.0634 41.4973 79.1567 41.67C79.2547 41.8427 79.3807 41.9757 79.5347 42.069C79.6934 42.1577 79.8614 42.202 80.0387 42.202C80.2207 42.202 80.3887 42.1553 80.5427 42.062C80.7014 41.9687 80.8274 41.8357 80.9207 41.663C81.0187 41.4903 81.0677 41.285 81.0677 41.047ZM84.1459 37.946C84.6312 37.946 85.0209 38.079 85.3149 38.345C85.6135 38.6063 85.7629 38.968 85.7629 39.43C85.7629 39.8873 85.6159 40.2373 85.3219 40.48C85.0279 40.718 84.6382 40.837 84.1529 40.837L84.1249 41.376H83.2639L83.2289 40.186H83.5439C83.9499 40.186 84.2625 40.1323 84.4819 40.025C84.7012 39.9177 84.8109 39.7217 84.8109 39.437C84.8109 39.2317 84.7502 39.0683 84.6289 38.947C84.5122 38.8257 84.3512 38.765 84.1459 38.765C83.9312 38.765 83.7632 38.8233 83.6419 38.94C83.5252 39.0567 83.4669 39.2177 83.4669 39.423H82.5429C82.5382 39.1383 82.5989 38.884 82.7249 38.66C82.8509 38.436 83.0352 38.261 83.2779 38.135C83.5252 38.009 83.8145 37.946 84.1459 37.946ZM83.6909 43.049C83.5135 43.049 83.3665 42.9953 83.2499 42.888C83.1379 42.776 83.0819 42.6383 83.0819 42.475C83.0819 42.3117 83.1379 42.1763 83.2499 42.069C83.3665 41.957 83.5135 41.901 83.6909 41.901C83.8635 41.901 84.0059 41.957 84.1179 42.069C84.2299 42.1763 84.2859 42.3117 84.2859 42.475C84.2859 42.6383 84.2299 42.776 84.1179 42.888C84.0059 42.9953 83.8635 43.049 83.6909 43.049Z" fill="#58707F"/>
<circle cx="20" cy="40" r="6" fill="#58707F"/>
<path d="M20 36.125C22.1875 36.125 23.875 37.7344 23.875 39.8906C23.875 42.625 21.2656 44.1562 18.875 43.5C18.7344 43.4688 18.7188 43.5 17.9062 43.8594C17.8594 43.875 17.8125 43.875 17.7812 43.875C17.6094 43.875 17.4688 43.75 17.4688 43.5781C17.4375 42.8594 17.4688 42.7969 17.3438 42.6719C16.5781 42 16.125 41.0156 16.125 39.8906C16.125 37.7344 17.8125 36.125 20 36.125ZM22.3281 39.0312C22.4375 38.8594 22.2344 38.6562 22.0625 38.7812L20.8438 39.7031C20.7969 39.7344 20.75 39.75 20.7031 39.75C20.6406 39.75 20.5938 39.7344 20.5625 39.7031L19.6562 39.0312C19.5625 38.9531 19.4375 38.9062 19.2969 38.9062C19.0938 38.9062 18.9062 39.0156 18.8125 39.1875L17.6719 40.9844C17.5625 41.1562 17.7656 41.3594 17.9375 41.2344L19.1562 40.3125C19.2031 40.2812 19.25 40.2656 19.2969 40.2656C19.3594 40.2656 19.4062 40.2812 19.4375 40.3125L20.3438 40.9844C20.4531 41.0625 20.5625 41.1094 20.7031 41.1094C20.9062 41.1094 21.0938 41 21.1875 40.8281L22.3281 39.0312Z" fill="white"/>
</svg>
