<svg width="100" height="80" viewBox="0 0 100 80" fill="none" xmlns="http://www.w3.org/2000/svg">
<circle cx="50" cy="40" r="24" fill="white"/>
<path d="M50 25.2188C58.2031 25.2188 64.5312 31.2539 64.5312 39.3398C64.5312 49.5938 54.7461 55.3359 45.7812 52.875C45.2539 52.7578 45.1953 52.875 42.1484 54.2227C41.9727 54.2812 41.7969 54.2812 41.6797 54.2812C41.0352 54.2812 40.5078 53.8125 40.5078 53.168C40.3906 50.4727 40.5078 50.2383 40.0391 49.7695C37.168 47.25 35.4688 43.5586 35.4688 39.3398C35.4688 31.2539 41.7969 25.2188 50 25.2188ZM58.7305 36.1172C59.1406 35.4727 58.3789 34.7109 57.7344 35.1797L53.1641 38.6367C52.9883 38.7539 52.8125 38.8125 52.6367 38.8125C52.4023 38.8125 52.2266 38.7539 52.1094 38.6367L48.7109 36.1172C48.3594 35.8242 47.8906 35.6484 47.3633 35.6484C46.6016 35.6484 45.8984 36.0586 45.5469 36.7031L41.2695 43.4414C40.8594 44.0859 41.6211 44.8477 42.2656 44.3789L46.8359 40.9219C47.0117 40.8047 47.1875 40.7461 47.3633 40.7461C47.5977 40.7461 47.7734 40.8047 47.8906 40.9219L51.2891 43.4414C51.6992 43.7344 52.1094 43.9102 52.6367 43.9102C53.3984 43.9102 54.1016 43.5 54.4531 42.8555L58.7305 36.1172Z" fill="#58707F"/>
</svg>
